<svg width="47" height="45" viewBox="0 0 47 45" fill="none" xmlns="http://www.w3.org/2000/svg">
<g clip-path="url(#clip0_16_31)">
<path d="M41.125 22.5C41.125 20.2839 40.6691 18.0896 39.7834 16.0422C38.8976 13.9948 37.5994 12.1346 35.9628 10.5676C34.3261 9.00058 32.3832 7.75758 30.2448 6.90953C28.1064 6.06148 25.8145 5.625 23.5 5.625C21.1855 5.625 18.8936 6.06148 16.7552 6.90953C14.6168 7.75758 12.6739 9.00058 11.0372 10.5676C9.40061 12.1346 8.10236 13.9948 7.21662 16.0422C6.33088 18.0896 5.875 20.2839 5.875 22.5C5.875 24.7161 6.33088 26.9104 7.21662 28.9578C8.10236 31.0052 9.40061 32.8654 11.0372 34.4324C12.6739 35.9994 14.6168 37.2424 16.7552 38.0905C18.8936 38.9385 21.1855 39.375 23.5 39.375C25.8145 39.375 28.1064 38.9385 30.2448 38.0905C32.3832 37.2424 34.3261 35.9994 35.9628 34.4324C37.5994 32.8654 38.8976 31.0052 39.7834 28.9578C40.6691 26.9104 41.125 24.7161 41.125 22.5ZM0 22.5C0 16.5326 2.47589 10.8097 6.88299 6.5901C11.2901 2.37053 17.2674 0 23.5 0C29.7326 0 35.7099 2.37053 40.117 6.5901C44.5241 10.8097 47 16.5326 47 22.5C47 28.4674 44.5241 34.1903 40.117 38.4099C35.7099 42.6295 29.7326 45 23.5 45C17.2674 45 11.2901 42.6295 6.88299 38.4099C2.47589 34.1903 0 28.4674 0 22.5ZM23.5 29.5312C25.4477 29.5312 27.3156 28.7905 28.6928 27.4718C30.07 26.1532 30.8438 24.3648 30.8438 22.5C30.8438 20.6352 30.07 18.8468 28.6928 17.5282C27.3156 16.2095 25.4477 15.4688 23.5 15.4688C21.5523 15.4688 19.6844 16.2095 18.3072 17.5282C16.93 18.8468 16.1562 20.6352 16.1562 22.5C16.1562 24.3648 16.93 26.1532 18.3072 27.4718C19.6844 28.7905 21.5523 29.5312 23.5 29.5312ZM23.5 9.84375C27.0058 9.84375 30.3681 11.1772 32.8471 13.5507C35.3261 15.9242 36.7188 19.1434 36.7188 22.5C36.7188 25.8566 35.3261 29.0758 32.8471 31.4493C30.3681 33.8228 27.0058 35.1562 23.5 35.1562C19.9942 35.1562 16.6319 33.8228 14.1529 31.4493C11.6739 29.0758 10.2812 25.8566 10.2812 22.5C10.2812 19.1434 11.6739 15.9242 14.1529 13.5507C16.6319 11.1772 19.9942 9.84375 23.5 9.84375ZM20.5625 22.5C20.5625 21.7541 20.872 21.0387 21.4229 20.5113C21.9738 19.9838 22.7209 19.6875 23.5 19.6875C24.2791 19.6875 25.0262 19.9838 25.5771 20.5113C26.128 21.0387 26.4375 21.7541 26.4375 22.5C26.4375 23.2459 26.128 23.9613 25.5771 24.4887C25.0262 25.0162 24.2791 25.3125 23.5 25.3125C22.7209 25.3125 21.9738 25.0162 21.4229 24.4887C20.872 23.9613 20.5625 23.2459 20.5625 22.5Z" fill="#98C4F7"/>
<path d="M41.125 22.5C41.125 20.2839 40.6691 18.0896 39.7834 16.0422C38.8976 13.9948 37.5994 12.1346 35.9628 10.5676C34.3261 9.00058 32.3832 7.75758 30.2448 6.90953C28.1064 6.06148 25.8145 5.625 23.5 5.625C21.1855 5.625 18.8936 6.06148 16.7552 6.90953C14.6168 7.75758 12.6739 9.00058 11.0372 10.5676C9.40061 12.1346 8.10236 13.9948 7.21662 16.0422C6.33088 18.0896 5.875 20.2839 5.875 22.5C5.875 24.7161 6.33088 26.9104 7.21662 28.9578C8.10236 31.0052 9.40061 32.8654 11.0372 34.4324C12.6739 35.9994 14.6168 37.2424 16.7552 38.0905C18.8936 38.9385 21.1855 39.375 23.5 39.375C25.8145 39.375 28.1064 38.9385 30.2448 38.0905C32.3832 37.2424 34.3261 35.9994 35.9628 34.4324C37.5994 32.8654 38.8976 31.0052 39.7834 28.9578C40.6691 26.9104 41.125 24.7161 41.125 22.5ZM0 22.5C0 16.5326 2.47589 10.8097 6.88299 6.5901C11.2901 2.37053 17.2674 0 23.5 0C29.7326 0 35.7099 2.37053 40.117 6.5901C44.5241 10.8097 47 16.5326 47 22.5C47 28.4674 44.5241 34.1903 40.117 38.4099C35.7099 42.6295 29.7326 45 23.5 45C17.2674 45 11.2901 42.6295 6.88299 38.4099C2.47589 34.1903 0 28.4674 0 22.5ZM23.5 29.5312C25.4477 29.5312 27.3156 28.7905 28.6928 27.4718C30.07 26.1532 30.8438 24.3648 30.8438 22.5C30.8438 20.6352 30.07 18.8468 28.6928 17.5282C27.3156 16.2095 25.4477 15.4688 23.5 15.4688C21.5523 15.4688 19.6844 16.2095 18.3072 17.5282C16.93 18.8468 16.1562 20.6352 16.1562 22.5C16.1562 24.3648 16.93 26.1532 18.3072 27.4718C19.6844 28.7905 21.5523 29.5312 23.5 29.5312ZM23.5 9.84375C27.0058 9.84375 30.3681 11.1772 32.8471 13.5507C35.3261 15.9242 36.7188 19.1434 36.7188 22.5C36.7188 25.8566 35.3261 29.0758 32.8471 31.4493C30.3681 33.8228 27.0058 35.1562 23.5 35.1562C19.9942 35.1562 16.6319 33.8228 14.1529 31.4493C11.6739 29.0758 10.2812 25.8566 10.2812 22.5C10.2812 19.1434 11.6739 15.9242 14.1529 13.5507C16.6319 11.1772 19.9942 9.84375 23.5 9.84375ZM20.5625 22.5C20.5625 21.7541 20.872 21.0387 21.4229 20.5113C21.9738 19.9838 22.7209 19.6875 23.5 19.6875C24.2791 19.6875 25.0262 19.9838 25.5771 20.5113C26.128 21.0387 26.4375 21.7541 26.4375 22.5C26.4375 23.2459 26.128 23.9613 25.5771 24.4887C25.0262 25.0162 24.2791 25.3125 23.5 25.3125C22.7209 25.3125 21.9738 25.0162 21.4229 24.4887C20.872 23.9613 20.5625 23.2459 20.5625 22.5Z" fill="black" fill-opacity="0.2"/>
</g>
<defs>
<clipPath id="clip0_16_31">
<rect width="47" height="45" fill="white"/>
</clipPath>
</defs>
</svg>
