<svg width="52" height="46" viewBox="0 0 52 46" fill="none" xmlns="http://www.w3.org/2000/svg">
<g clip-path="url(#clip0_16_29)">
<path d="M26.0002 2.875C18.7057 2.875 12.8648 6.18125 8.61268 10.1164C4.38768 14.0156 1.56199 18.6875 0.225879 21.8949C-0.0720378 22.6047 -0.0720378 23.3953 0.225879 24.1051C1.56199 27.3125 4.38768 31.9844 8.61268 35.8836C12.8648 39.8187 18.7057 43.125 26.0002 43.125C33.2946 43.125 39.1356 39.8187 43.3877 35.8836C47.6127 31.9754 50.4384 27.3125 51.7835 24.1051C52.0814 23.3953 52.0814 22.6047 51.7835 21.8949C50.4384 18.6875 47.6127 14.0156 43.3877 10.1164C39.1356 6.18125 33.2946 2.875 26.0002 2.875ZM13.0002 23C13.0002 19.5688 14.3698 16.2781 16.8078 13.8518C19.2458 11.4256 22.5524 10.0625 26.0002 10.0625C29.448 10.0625 32.7546 11.4256 35.1926 13.8518C37.6305 16.2781 39.0002 19.5688 39.0002 23C39.0002 26.4312 37.6305 29.7219 35.1926 32.1482C32.7546 34.5744 29.448 35.9375 26.0002 35.9375C22.5524 35.9375 19.2458 34.5744 16.8078 32.1482C14.3698 29.7219 13.0002 26.4312 13.0002 23ZM26.0002 17.25C26.0002 20.4215 23.4092 23 20.2224 23C19.5814 23 18.9675 22.8922 18.3898 22.7035C17.8932 22.5418 17.3155 22.8473 17.3335 23.3684C17.3606 23.9883 17.4509 24.6082 17.6224 25.2281C18.8592 29.8281 23.6168 32.5594 28.2391 31.3285C32.8613 30.0977 35.6057 25.3629 34.3689 20.7629C33.3668 17.0344 30.0537 14.5277 26.3703 14.375C25.8467 14.357 25.5398 14.923 25.7023 15.4262C25.8918 16.0012 26.0002 16.6121 26.0002 17.25Z" fill="#89A7CB"/>
</g>
<defs>
<clipPath id="clip0_16_29">
<rect width="52" height="46" fill="white"/>
</clipPath>
</defs>
</svg>
