<svg width="56" height="56" viewBox="0 0 56 56" fill="none" xmlns="http://www.w3.org/2000/svg">
<g clip-path="url(#clip0_109_31)">
<path d="M0 28C0 35.4261 2.94999 42.548 8.20101 47.799C13.452 53.05 20.5739 56 28 56C35.4261 56 42.548 53.05 47.799 47.799C53.05 42.548 56 35.4261 56 28C56 20.5739 53.05 13.452 47.799 8.20101C42.548 2.94999 35.4261 0 28 0C20.5739 0 13.452 2.94999 8.20101 8.20101C2.94999 13.452 0 20.5739 0 28ZM30.7344 42.1094C29.7062 43.1375 28.0438 43.1375 27.0266 42.1094C26.0094 41.0812 25.9984 39.4188 27.0266 38.4016L34.7922 30.6359L14.875 30.625C13.4203 30.625 12.25 29.4547 12.25 28C12.25 26.5453 13.4203 25.375 14.875 25.375H34.7922L27.0266 17.6094C25.9984 16.5812 25.9984 14.9187 27.0266 13.9016C28.0547 12.8844 29.7172 12.8734 30.7344 13.9016L42.9844 26.1406C44.0125 27.1688 44.0125 28.8312 42.9844 29.8484L30.7344 42.1094Z" fill="#F0A400"/>
</g>
<defs>
<clipPath id="clip0_109_31">
<rect width="56" height="56" fill="white"/>
</clipPath>
</defs>
</svg>
