<svg width="34" height="33" viewBox="0 0 34 33" fill="none" xmlns="http://www.w3.org/2000/svg">
<path d="M33.2271 16.5615C33.2271 7.41384 25.8407 0 16.7271 0C7.61338 0 0.227051 7.41384 0.227051 16.5615C0.227051 24.3246 5.55732 30.8457 12.7438 32.6377V21.6205H9.34072V16.5615H12.7438V14.3813C12.7438 8.74652 15.2833 6.13292 20.8005 6.13292C21.8446 6.13292 23.6493 6.33993 24.3905 6.54695V11.1272C24.0038 11.0884 23.327 11.0625 22.4827 11.0625C19.7757 11.0625 18.7315 12.0912 18.7315 14.763V16.5615H24.1198L23.1917 21.6205H18.7251V33C26.8978 32.0102 33.2271 25.0298 33.2271 16.5615Z" fill="white"/>
</svg>
