<svg width="34" height="33" viewBox="0 0 34 33" fill="none" xmlns="http://www.w3.org/2000/svg">
<g clip-path="url(#clip0_62_64)">
<path d="M16.7346 9.08794C12.0497 9.08794 8.27095 12.3944 8.27095 16.4936C8.27095 20.5928 12.0497 23.8993 16.7346 23.8993C21.4194 23.8993 25.1982 20.5928 25.1982 16.4936C25.1982 12.3944 21.4194 9.08794 16.7346 9.08794ZM16.7346 21.3083C13.7071 21.3083 11.2321 19.1491 11.2321 16.4936C11.2321 13.8381 13.6997 11.679 16.7346 11.679C19.7694 11.679 22.237 13.8381 22.237 16.4936C22.237 19.1491 19.762 21.3083 16.7346 21.3083ZM27.5185 8.78501C27.5185 9.74536 26.6346 10.5124 25.5444 10.5124C24.4468 10.5124 23.5703 9.73892 23.5703 8.78501C23.5703 7.8311 24.4542 7.05767 25.5444 7.05767C26.6346 7.05767 27.5185 7.8311 27.5185 8.78501ZM33.1241 10.5381C32.9989 8.22427 32.3948 6.17466 30.4576 4.48599C28.5276 2.79731 26.1852 2.2688 23.5408 2.15278C20.8154 2.01743 12.6464 2.01743 9.92095 2.15278C7.2839 2.26235 4.94149 2.79087 3.00421 4.47954C1.06694 6.16821 0.470285 8.21782 0.337695 10.5317C0.183008 12.9165 0.183008 20.0643 0.337695 22.4491C0.462919 24.7629 1.06694 26.8125 3.00421 28.5012C4.94149 30.1899 7.27653 30.7184 9.92095 30.8344C12.6464 30.9698 20.8154 30.9698 23.5408 30.8344C26.1852 30.7249 28.5276 30.1963 30.4576 28.5012C32.3875 26.8125 32.9915 24.7629 33.1241 22.4491C33.2788 20.0643 33.2788 12.9229 33.1241 10.5381ZM29.6031 25.0079C29.0285 26.2711 27.9163 27.2444 26.4652 27.7536C24.2922 28.5077 19.1359 28.3336 16.7346 28.3336C14.3332 28.3336 9.16961 28.5012 7.00399 27.7536C5.56024 27.2508 4.44796 26.2776 3.86604 25.0079C3.00421 23.1065 3.2031 18.5948 3.2031 16.4936C3.2031 14.3924 3.01158 9.87427 3.86604 7.97935C4.4406 6.71606 5.55287 5.74282 7.00399 5.23364C9.17698 4.47954 14.3332 4.65356 16.7346 4.65356C19.1359 4.65356 24.2995 4.48599 26.4652 5.23364C27.9089 5.73638 29.0212 6.70962 29.6031 7.97935C30.4649 9.88071 30.266 14.3924 30.266 16.4936C30.266 18.5948 30.4649 23.1129 29.6031 25.0079Z" fill="white"/>
</g>
<defs>
<clipPath id="clip0_62_64">
<rect width="33" height="33" fill="white" transform="translate(0.227051)"/>
</clipPath>
</defs>
</svg>
