<svg width="34" height="33" viewBox="0 0 34 33" fill="none" xmlns="http://www.w3.org/2000/svg">
<g clip-path="url(#clip0_62_66)">
<path d="M29.8368 9.77754C29.8562 10.0676 29.8562 10.3641 29.8562 10.6541C29.8562 19.5938 23.0499 29.8998 10.6104 29.8998C6.77549 29.8998 3.21768 28.7912 0.227051 26.8641C0.768457 26.9285 1.29697 26.9479 1.85771 26.9479C5.02236 26.9479 7.9292 25.8779 10.256 24.0604C7.28467 23.9959 4.79033 22.0494 3.93311 19.3682C4.35205 19.4326 4.771 19.4713 5.20928 19.4713C5.81514 19.4713 6.421 19.3875 6.98818 19.2393C3.88799 18.6141 1.56768 15.8877 1.56768 12.6006V12.5168C2.47002 13.0195 3.51416 13.3354 4.62275 13.374C2.79873 12.1623 1.60635 10.0869 1.60635 7.74082C1.60635 6.48398 1.9415 5.33027 2.52803 4.3248C5.86025 8.43047 10.8618 11.1117 16.4757 11.4018C16.3726 10.899 16.3081 10.377 16.3081 9.85488C16.3081 6.12949 19.3245 3.09375 23.0692 3.09375C25.0157 3.09375 26.7753 3.9123 28.0128 5.22715C29.5403 4.93711 31.0099 4.36992 32.3054 3.59648C31.8026 5.16914 30.7327 6.48398 29.3341 7.32188C30.694 7.17363 32.0153 6.7998 33.2271 6.27773C32.3054 7.61836 31.1517 8.81074 29.8368 9.77754Z" fill="white"/>
</g>
<defs>
<clipPath id="clip0_62_66">
<rect width="33" height="33" fill="white" transform="translate(0.227051)"/>
</clipPath>
</defs>
</svg>
