<svg width="50" height="50" viewBox="0 0 50 50" fill="none" xmlns="http://www.w3.org/2000/svg">
<path d="M27.7436 12.3417L22.819 12.3417L22.819 22.191L12.9698 22.191L12.9698 27.1156L22.819 27.1156L22.819 36.9648H27.7436L27.7436 27.1156L37.5929 27.1156V22.191L27.7436 22.191L27.7436 12.3417ZM25.2813 0.0301514C11.6894 0.0301514 0.658203 11.0613 0.658203 24.6533C0.658203 38.2452 11.6894 49.2764 25.2813 49.2764C38.8733 49.2764 49.9044 38.2452 49.9044 24.6533C49.9044 11.0613 38.8733 0.0301514 25.2813 0.0301514ZM25.2813 44.3518C14.4225 44.3518 5.58283 35.5121 5.58283 24.6533C5.58283 13.7945 14.4225 4.95477 25.2813 4.95477C36.1401 4.95477 44.9798 13.7945 44.9798 24.6533C44.9798 35.5121 36.1401 44.3518 25.2813 44.3518Z" fill="#F0A400" fill-opacity="0.4"/>
</svg>
