<svg width="17" height="17" viewBox="0 0 17 17" fill="none" xmlns="http://www.w3.org/2000/svg">
<path d="M5.73242 4.65986L5.73242 2.37415L10.3039 2.37415V4.65986" stroke="#171A1F" stroke-width="1.37143" stroke-miterlimit="10" stroke-linecap="square"/>
<path d="M12.5901 8.65991L12.5901 13.8028C12.5901 14.1059 12.4697 14.3966 12.2554 14.6109C12.0411 14.8252 11.7504 14.9456 11.4473 14.9456L4.59012 14.9456C4.28702 14.9456 3.99633 14.8252 3.782 14.6109C3.56767 14.3966 3.44727 14.1059 3.44727 13.8028L3.44727 8.65991" stroke="#171A1F" stroke-width="1.37143" stroke-miterlimit="10" stroke-linecap="square"/>
<path d="M8.01855 9.80273V12.0884" stroke="#171A1F" stroke-width="1.37143" stroke-miterlimit="10" stroke-linecap="square"/>
<path d="M5.73242 9.80273L5.73242 12.0884" stroke="#171A1F" stroke-width="1.37143" stroke-miterlimit="10" stroke-linecap="square"/>
<path d="M10.3047 9.80273V12.0884" stroke="#171A1F" stroke-width="1.37143" stroke-miterlimit="10" stroke-linecap="square"/>
<path d="M14.3039 4.65991L1.73242 4.65991L1.73242 6.94563L14.3039 6.94563V4.65991Z" stroke="#171A1F" stroke-width="1.37143" stroke-miterlimit="10" stroke-linecap="square"/>
</svg>
