<svg width="25" height="24" viewBox="0 0 25 24" fill="none" xmlns="http://www.w3.org/2000/svg">
<path d="M11.5 9H13.5L13.5 6L16.5 6V4L13.5 4L13.5 1L11.5 1L11.5 4L8.5 4L8.5 6L11.5 6L11.5 9ZM7.5 18C6.4 18 5.51 18.9 5.51 20C5.51 21.1 6.4 22 7.5 22C8.6 22 9.5 21.1 9.5 20C9.5 18.9 8.6 18 7.5 18ZM17.5 18C16.4 18 15.51 18.9 15.51 20C15.51 21.1 16.4 22 17.5 22C18.6 22 19.5 21.1 19.5 20C19.5 18.9 18.6 18 17.5 18ZM7.67 14.75L7.7 14.63L8.6 13L16.05 13C16.8 13 17.46 12.59 17.8 11.97L21.66 4.96L19.92 4H19.91L18.81 6L16.05 11L9.03 11L8.9 10.73L6.66 6L5.71 4L4.77 2L1.5 2L1.5 4L3.5 4L7.1 11.59L5.75 14.04C5.59 14.32 5.5 14.65 5.5 15C5.5 16.1 6.4 17 7.5 17L19.5 17V15L7.92 15C7.79 15 7.67 14.89 7.67 14.75Z" fill="#F0A400"/>
</svg>
