<svg width="214" height="33" viewBox="0 0 214 33" fill="none" xmlns="http://www.w3.org/2000/svg">
<path d="M33.4908 16.5615C33.4908 7.41384 26.1045 0 16.9908 0C7.87717 0 0.490845 7.41384 0.490845 16.5615C0.490845 24.3246 5.82112 30.8457 13.0076 32.6377V21.6205H9.60452V16.5615H13.0076V14.3813C13.0076 8.74652 15.5471 6.13292 21.0643 6.13292C22.1084 6.13292 23.9131 6.33993 24.6543 6.54695V11.1272C24.2676 11.0884 23.5908 11.0625 22.7465 11.0625C20.0395 11.0625 18.9953 12.0912 18.9953 14.763V16.5615H24.3836L23.4555 21.6205H18.9889V33C27.1615 32.0102 33.4908 25.0298 33.4908 16.5615Z" fill="white"/>
<path d="M77.0037 7.03667C72.3189 7.03667 68.5401 10.3431 68.5401 14.4423C68.5401 18.5416 72.3189 21.848 77.0037 21.848C81.6886 21.848 85.4674 18.5416 85.4674 14.4423C85.4674 10.3431 81.6886 7.03667 77.0037 7.03667ZM77.0037 19.257C73.9763 19.257 71.5013 17.0978 71.5013 14.4423C71.5013 11.7869 73.9689 9.62769 77.0037 9.62769C80.0386 9.62769 82.5062 11.7869 82.5062 14.4423C82.5062 17.0978 80.0312 19.257 77.0037 19.257ZM87.7877 6.73374C87.7877 7.69409 86.9037 8.46108 85.8136 8.46108C84.716 8.46108 83.8394 7.68765 83.8394 6.73374C83.8394 5.77983 84.7234 5.0064 85.8136 5.0064C86.9037 5.0064 87.7877 5.77983 87.7877 6.73374ZM93.3932 8.48687C93.268 6.173 92.664 4.12339 90.7267 2.43472C88.7968 0.746045 86.4544 0.217529 83.81 0.101514C81.0845 -0.0338379 72.9156 -0.0338379 70.1901 0.101514C67.5531 0.211084 65.2107 0.7396 63.2734 2.42827C61.3361 4.11694 60.7394 6.16655 60.6069 8.48042C60.4522 10.8652 60.4522 18.013 60.6069 20.3978C60.7321 22.7117 61.3361 24.7613 63.2734 26.45C65.2107 28.1386 67.5457 28.6671 70.1901 28.7832C72.9156 28.9185 81.0845 28.9185 83.81 28.7832C86.4544 28.6736 88.7968 28.1451 90.7267 26.45C92.6566 24.7613 93.2607 22.7117 93.3932 20.3978C93.5479 18.013 93.5479 10.8716 93.3932 8.48687ZM89.8723 22.9566C89.2977 24.2199 88.1854 25.1931 86.7343 25.7023C84.5613 26.4564 79.4051 26.2824 77.0037 26.2824C74.6024 26.2824 69.4388 26.45 67.2732 25.7023C65.8294 25.1996 64.7171 24.2263 64.1352 22.9566C63.2734 21.0552 63.4723 16.5435 63.4723 14.4423C63.4723 12.3412 63.2807 7.823 64.1352 5.92808C64.7098 4.66479 65.822 3.69155 67.2732 3.18237C69.4461 2.42827 74.6024 2.60229 77.0037 2.60229C79.4051 2.60229 84.5687 2.43472 86.7343 3.18237C88.1781 3.68511 89.2903 4.65835 89.8723 5.92808C90.7341 7.82944 90.5352 12.3412 90.5352 14.4423C90.5352 16.5435 90.7341 21.0617 89.8723 22.9566Z" fill="white"/>
<path d="M150.119 6.68379C150.138 6.97383 150.138 7.27031 150.138 7.56035C150.138 16.5 143.332 26.8061 130.893 26.8061C127.058 26.8061 123.5 25.6975 120.509 23.7703C121.051 23.8348 121.579 23.8541 122.14 23.8541C125.305 23.8541 128.211 22.7842 130.538 20.9666C127.567 20.9021 125.073 18.9557 124.215 16.2744C124.634 16.3389 125.053 16.3775 125.492 16.3775C126.097 16.3775 126.703 16.2937 127.27 16.1455C124.17 15.5203 121.85 12.7939 121.85 9.50684V9.42305C122.752 9.92578 123.796 10.2416 124.905 10.2803C123.081 9.06855 121.889 6.99316 121.889 4.64707C121.889 3.39023 122.224 2.23652 122.81 1.23105C126.142 5.33672 131.144 8.01797 136.758 8.30801C136.655 7.80527 136.59 7.2832 136.59 6.76113C136.59 3.03574 139.607 0 143.351 0C145.298 0 147.058 0.818555 148.295 2.1334C149.823 1.84336 151.292 1.27617 152.588 0.502734C152.085 2.07539 151.015 3.39023 149.616 4.22812C150.976 4.07988 152.298 3.70605 153.509 3.18398C152.588 4.52461 151.434 5.71699 150.119 6.68379Z" fill="white"/>
<path d="M211.152 2.0625H182.859C181.563 2.0625 180.509 2.99707 180.509 4.14434V28.8557C180.509 30.0029 181.563 30.9375 182.859 30.9375H211.152C212.449 30.9375 213.509 30.0029 213.509 28.8557V4.14434C213.509 2.99707 212.449 2.0625 211.152 2.0625ZM190.483 26.8125H185.592V13.0324H190.49V26.8125H190.483ZM188.037 11.1504C186.468 11.1504 185.201 10.0354 185.201 8.66895C185.201 7.30254 186.468 6.1875 188.037 6.1875C189.599 6.1875 190.873 7.30254 190.873 8.66895C190.873 10.0418 189.606 11.1504 188.037 11.1504ZM208.817 26.8125H203.926V20.1094C203.926 18.5109 203.889 16.4549 201.385 16.4549C198.836 16.4549 198.446 18.1951 198.446 19.9934V26.8125H193.555V13.0324H198.247V14.9145H198.313C198.969 13.8316 200.567 12.6908 202.946 12.6908C207.896 12.6908 208.817 15.5461 208.817 19.2586V26.8125Z" fill="white"/>
</svg>
