<svg width="76" height="51" viewBox="0 0 76 51" fill="none" xmlns="http://www.w3.org/2000/svg">
<path d="M12.6667 0C8.00903 0 4.22222 3.24571 4.22222 7.23783V39.808H12.6667V7.23783H63.3333V39.808H71.7778V7.23783C71.7778 3.24571 67.991 0 63.3333 0H12.6667ZM29.5556 39.808V43.427H4.22222C1.88681 43.427 0 45.0442 0 47.0459C0 49.0476 1.88681 50.6648 4.22222 50.6648H71.7778C74.1132 50.6648 76 49.0476 76 47.0459C76 45.0442 74.1132 43.427 71.7778 43.427H54.8889V39.808C54.8889 37.8063 53.0021 36.1891 50.6667 36.1891H33.7778C31.4424 36.1891 29.5556 37.8063 29.5556 39.808Z" fill="#98C4F7"/>
<path d="M12.6667 0C8.00903 0 4.22222 3.24571 4.22222 7.23783V39.808H12.6667V7.23783H63.3333V39.808H71.7778V7.23783C71.7778 3.24571 67.991 0 63.3333 0H12.6667ZM29.5556 39.808V43.427H4.22222C1.88681 43.427 0 45.0442 0 47.0459C0 49.0476 1.88681 50.6648 4.22222 50.6648H71.7778C74.1132 50.6648 76 49.0476 76 47.0459C76 45.0442 74.1132 43.427 71.7778 43.427H54.8889V39.808C54.8889 37.8063 53.0021 36.1891 50.6667 36.1891H33.7778C31.4424 36.1891 29.5556 37.8063 29.5556 39.808Z" fill="black" fill-opacity="0.2"/>
</svg>
