<svg width="70" height="49" viewBox="0 0 70 49" fill="none" xmlns="http://www.w3.org/2000/svg">
<path d="M4.025 18.0332H65.975C68.1953 18.0332 70 16.4835 70 14.5769C70 13.8912 69.7594 13.2244 69.3219 12.6608L61.0531 2.00995C60.0797 0.751385 58.45 0 56.6891 0H13.3109C11.5609 0 9.92031 0.751385 8.94688 2.00995L0.678125 12.6514C0.240625 13.2244 0 13.8912 0 14.5675C0 16.4835 1.80469 18.0332 4.025 18.0332ZM7 21.0388V36.0665V43.5803C7 46.0693 9.35156 48.0886 12.25 48.0886H36.75C39.6484 48.0886 42 46.0693 42 43.5803V36.0665V21.0388H35V36.0665H14V21.0388H7ZM56 21.0388V45.0831C56 46.7455 57.5641 48.0886 59.5 48.0886C61.4359 48.0886 63 46.7455 63 45.0831V21.0388H56Z" fill="#89A7CB"/>
</svg>
