<svg width="65" height="42" viewBox="0 0 65 42" fill="none" xmlns="http://www.w3.org/2000/svg">
<path d="M6.09375 0C2.72949 0 0 2.34388 0 5.23286C0 6.87903 0.901367 8.42708 2.4375 9.41914L30.0625 27.2109C31.5098 28.1375 33.4902 28.1375 34.9375 27.2109L62.5625 9.41914C64.0986 8.42708 65 6.87903 65 5.23286C65 2.34388 62.2705 0 58.9062 0H6.09375ZM0 12.21V34.8857C0 38.734 3.64355 41.8629 8.125 41.8629H56.875C61.3564 41.8629 65 38.734 65 34.8857V12.21L37.375 30.0017C34.4805 31.8659 30.5195 31.8659 27.625 30.0017L0 12.21Z" fill="#98C4F7"/>
<path d="M6.09375 0C2.72949 0 0 2.34388 0 5.23286C0 6.87903 0.901367 8.42708 2.4375 9.41914L30.0625 27.2109C31.5098 28.1375 33.4902 28.1375 34.9375 27.2109L62.5625 9.41914C64.0986 8.42708 65 6.87903 65 5.23286C65 2.34388 62.2705 0 58.9062 0H6.09375ZM0 12.21V34.8857C0 38.734 3.64355 41.8629 8.125 41.8629H56.875C61.3564 41.8629 65 38.734 65 34.8857V12.21L37.375 30.0017C34.4805 31.8659 30.5195 31.8659 27.625 30.0017L0 12.21Z" fill="black" fill-opacity="0.2"/>
</svg>
