<svg width="34" height="33" viewBox="0 0 34 33" fill="none" xmlns="http://www.w3.org/2000/svg">
<g clip-path="url(#clip0_62_68)">
<path d="M30.8699 2.0625H2.57683C1.2804 2.0625 0.227051 2.99707 0.227051 4.14434V28.8557C0.227051 30.0029 1.2804 30.9375 2.57683 30.9375H30.8699C32.1663 30.9375 33.2271 30.0029 33.2271 28.8557V4.14434C33.2271 2.99707 32.1663 2.0625 30.8699 2.0625ZM10.2007 26.8125H5.30964V13.0324H10.2081V26.8125H10.2007ZM7.75518 11.1504C6.1862 11.1504 4.91924 10.0354 4.91924 8.66895C4.91924 7.30254 6.1862 6.1875 7.75518 6.1875C9.31678 6.1875 10.5911 7.30254 10.5911 8.66895C10.5911 10.0418 9.32415 11.1504 7.75518 11.1504ZM28.5349 26.8125H23.6438V20.1094C23.6438 18.5109 23.607 16.4549 21.1025 16.4549C18.5538 16.4549 18.1634 18.1951 18.1634 19.9934V26.8125H13.2724V13.0324H17.9646V14.9145H18.0308C18.6864 13.8316 20.2849 12.6908 22.6641 12.6908C27.6141 12.6908 28.5349 15.5461 28.5349 19.2586V26.8125Z" fill="white"/>
</g>
<defs>
<clipPath id="clip0_62_68">
<rect width="33" height="33" fill="white" transform="translate(0.227051)"/>
</clipPath>
</defs>
</svg>
