<svg width="50" height="30" viewBox="0 0 50 50" fill="none" xmlns="http://www.w3.org/2000/svg">
<g clip-path="url(#clip0_62_11)">
<path d="M11.0352 37.5195C13.1934 33.7695 17.2461 31.25 21.875 31.25H28.125C32.7539 31.25 36.8066 33.7695 38.9648 37.5195C35.5273 41.3477 30.5469 43.75 25 43.75C19.4531 43.75 14.4727 41.3379 11.0352 37.5195ZM50 25C50 18.3696 47.3661 12.0107 42.6777 7.32233C37.9893 2.63392 31.6304 0 25 0C18.3696 0 12.0107 2.63392 7.32233 7.32233C2.63392 12.0107 0 18.3696 0 25C0 31.6304 2.63392 37.9893 7.32233 42.6777C12.0107 47.3661 18.3696 50 25 50C31.6304 50 37.9893 47.3661 42.6777 42.6777C47.3661 37.9893 50 31.6304 50 25ZM25 26.5625C23.1352 26.5625 21.3468 25.8217 20.0282 24.5031C18.7095 23.1845 17.9688 21.3961 17.9688 19.5312C17.9688 17.6664 18.7095 15.878 20.0282 14.5594C21.3468 13.2408 23.1352 12.5 25 12.5C26.8648 12.5 28.6532 13.2408 29.9718 14.5594C31.2905 15.878 32.0312 17.6664 32.0312 19.5312C32.0312 21.3961 31.2905 23.1845 29.9718 24.5031C28.6532 25.8217 26.8648 26.5625 25 26.5625Z" fill="#D6D6D6"/>
</g>
<defs>
<clipPath id="clip0_62_11">
<rect width="50" height="50" fill="white" transform="matrix(-1 0 0 1 50 0)"/>
</clipPath>
</defs>
</svg>
